<svg width="198" height="32" viewBox="0 0 198 32" fill="none" xmlns="http://www.w3.org/2000/svg">
<path d="M12.7 32H0.95V0.649998H12.7C15.8333 0.649998 18.35 0.916666 20.25 1.45C22.15 1.98333 23.6667 2.85 24.8 4.05C25.9333 5.25 26.7667 6.85 27.3 8.85C27.8333 10.8167 28.1 13.3 28.1 16.3C28.1 21.7333 26.8833 25.7167 24.45 28.25C22.0167 30.75 18.1 32 12.7 32ZM18.5 16.3C18.5 13.3667 18.1333 11.4 17.4 10.4C16.7 9.36667 15.1333 8.85 12.7 8.85H10.2V23.55H12.7C15.1333 23.55 16.7 23.05 17.4 22.05C18.1333 21.05 18.5 19.1333 18.5 16.3ZM52.977 23.65V32H31.077V0.649998H52.527V8.8H40.327V12.35H50.677V19.95H40.327V23.65H52.977ZM83.8281 0.649998V32H75.0781L64.6781 16.45V32H56.0281V0.649998H64.6781L75.1781 17.05V0.649998H83.8281ZM111.118 0.649998V9.05H103.418V32H94.1176V9.05H86.3676V0.649998H111.118ZM141.445 0.649998V32H132.695L122.295 16.45V32H113.645V0.649998H122.295L132.795 17.05V0.649998H141.445ZM167.235 23.65V32H145.335V0.649998H166.785V8.8H154.585V12.35H164.935V19.95H154.585V23.65H167.235ZM179.536 22.2V32H170.286V0.649998H182.036C187.069 0.649998 190.619 1.5 192.686 3.2C194.786 4.86667 195.836 7.68333 195.836 11.65C195.836 14.0167 195.369 15.9667 194.436 17.5C193.536 19.0333 192.153 20.1833 190.286 20.95L197.136 32H186.536L181.286 22.2H179.536ZM186.386 11.8C186.386 10.7667 186.103 10.0333 185.536 9.6C184.969 9.16667 183.953 8.95 182.486 8.95H179.536V15.1H182.486C183.953 15.1 184.969 14.85 185.536 14.35C186.103 13.85 186.386 13 186.386 11.8Z" fill="#4B72FE"/>
</svg>
