<svg width="27" height="27" viewBox="0 0 27 27" fill="none" xmlns="http://www.w3.org/2000/svg">
<path d="M13.5 23.625C10.8147 23.625 8.23935 22.5583 6.34054 20.6595C4.44174 18.7606 3.375 16.1853 3.375 13.5V13.5C3.375 10.8147 4.44174 8.23935 6.34054 6.34054C8.23935 4.44174 10.8147 3.375 13.5 3.375V3.375C16.1853 3.375 18.7606 4.44174 20.6595 6.34054C22.5583 8.23935 23.625 10.8147 23.625 13.5V13.5C23.625 16.1853 22.5583 18.7606 20.6595 20.6595C18.7606 22.5583 16.1853 23.625 13.5 23.625V23.625ZM13.5 7.875C12.61 7.875 11.74 8.13892 10.9999 8.63339C10.2599 9.12785 9.68314 9.83066 9.34254 10.6529C9.00195 11.4752 8.91283 12.38 9.08647 13.2529C9.2601 14.1258 9.68868 14.9276 10.318 15.557C10.9474 16.1863 11.7492 16.6149 12.6221 16.7885C13.495 16.9622 14.3998 16.8731 15.2221 16.5325C16.0443 16.1919 16.7471 15.6151 17.2416 14.8751C17.7361 14.135 18 13.265 18 12.375C18 11.1815 17.5259 10.0369 16.682 9.19302C15.8381 8.34911 14.6935 7.875 13.5 7.875ZM15.9413 16.1438C15.2163 16.6204 14.3676 16.8744 13.5 16.8744C12.6324 16.8744 11.7837 16.6204 11.0587 16.1438C9.98747 16.4917 9.0033 17.0654 8.17266 17.8262C7.34203 18.587 6.68426 19.5171 6.24375 20.5538C7.17887 21.5145 8.29548 22.28 9.52879 22.8057C10.7621 23.3315 12.0875 23.6071 13.4282 23.6165C14.7689 23.6259 16.0981 23.369 17.3386 22.8606C18.5792 22.3522 19.7065 21.6025 20.655 20.655L20.7563 20.5538C20.3157 19.5171 19.658 18.587 18.8273 17.8262C17.9967 17.0654 17.0125 16.4917 15.9413 16.1438V16.1438Z" stroke="#222222" stroke-width="1.5" stroke-linecap="round" stroke-linejoin="round"/>
</svg>
