<svg width="20" height="21" viewBox="0 0 20 21" fill="none" xmlns="http://www.w3.org/2000/svg">
<path d="M8.14434 11.4766C8.14434 10.441 8.98381 9.60156 10.0193 9.60156C11.0549 9.60156 11.8943 10.441 11.8943 11.4766C11.8943 12.5121 11.0549 13.3516 10.0193 13.3516C8.98381 13.3516 8.14434 12.5121 8.14434 11.4766Z" fill="white"/>
<path fill-rule="evenodd" clip-rule="evenodd" d="M7.31694 5.15074C7.66857 4.79911 8.14549 4.60156 8.64277 4.60156H11.3572C11.8545 4.60156 12.3314 4.79911 12.6831 5.15074L13.2008 5.6685C13.318 5.78571 13.477 5.85156 13.6428 5.85156H15.625C16.6609 5.85156 17.5 6.69204 17.5 7.72718V15.2259C17.5 16.2611 16.6609 17.1016 15.625 17.1016H4.375C3.33947 17.1016 2.5 16.2621 2.5 15.2266V7.72656C2.5 6.69103 3.33947 5.85156 4.375 5.85156H6.35723C6.52299 5.85156 6.68196 5.78571 6.79917 5.6685L7.31694 5.15074ZM5.625 8.35156C5.27982 8.35156 5 8.63138 5 8.97656C5 9.32174 5.27982 9.60156 5.625 9.60156H5.63125C5.97643 9.60156 6.25625 9.32174 6.25625 8.97656C6.25625 8.63138 5.97643 8.35156 5.63125 8.35156H5.625ZM10.0193 8.35156C8.29345 8.35156 6.89434 9.75067 6.89434 11.4766C6.89434 13.2025 8.29345 14.6016 10.0193 14.6016C11.7452 14.6016 13.1443 13.2025 13.1443 11.4766C13.1443 9.75067 11.7452 8.35156 10.0193 8.35156Z" fill="white"/>
</svg>
