<svg width="20" height="20" viewBox="0 0 20 20" fill="none" xmlns="http://www.w3.org/2000/svg">
<path d="M4.14484 7.35006C5.58512 6.20929 7.65432 5 9.99739 5C12.3405 5 14.4097 6.20929 15.85 7.35006C16.5783 7.92697 17.1664 8.50261 17.5725 8.934C17.7759 9.15005 17.9346 9.33087 18.0433 9.45884C18.0977 9.52286 18.1397 9.57372 18.1686 9.60926C18.183 9.62702 18.1942 9.64096 18.202 9.6508L18.2113 9.66245L18.214 9.66591L18.2149 9.66703C18.2149 9.66703 18.2154 9.66775 17.7494 10L18.2154 9.66775C18.3693 9.86484 18.3691 10.1355 18.2152 10.3326L18.214 10.3341L18.2113 10.3375L18.202 10.3492C18.1942 10.359 18.183 10.373 18.1686 10.3907C18.1397 10.4263 18.0977 10.4771 18.0433 10.5412C17.9346 10.6691 17.7759 10.8499 17.5725 11.066C17.1664 11.4974 16.5783 12.073 15.85 12.6499C14.4097 13.7907 12.3405 15 9.99739 15C7.65432 15 5.58512 13.7907 4.14484 12.6499C3.41645 12.073 2.82844 11.4974 2.4223 11.066C2.2189 10.8499 2.06022 10.6691 1.95148 10.5412C1.89709 10.4771 1.85512 10.4263 1.82624 10.3907C1.81179 10.373 1.80061 10.359 1.79277 10.3492L1.78354 10.3375L1.78082 10.3341L1.77993 10.333C1.77993 10.333 1.77937 10.3322 2.2453 10L1.77937 10.3322C1.62547 10.1352 1.62571 9.86453 1.77961 9.66744L1.78082 9.66591L1.78354 9.66245L1.79277 9.6508C1.80061 9.64096 1.81179 9.62702 1.82624 9.60926C1.85512 9.57372 1.89709 9.52286 1.95148 9.45884C2.06022 9.33087 2.2189 9.15005 2.4223 8.934C2.82844 8.50261 3.41645 7.92697 4.14484 7.35006Z" fill="#404040"/>
<path d="M6.66406 9.9974C6.66406 8.15646 8.15646 6.66406 9.9974 6.66406C11.8383 6.66406 13.3307 8.15646 13.3307 9.9974C13.3307 11.8383 11.8383 13.3307 9.9974 13.3307C8.15646 13.3307 6.66406 11.8383 6.66406 9.9974ZM9.9974 8.20252C9.00613 8.20252 8.20252 9.00613 8.20252 9.9974C8.20252 10.9887 9.00613 11.7923 9.9974 11.7923C10.9887 11.7923 11.7923 10.9887 11.7923 9.9974C11.7923 9.00613 10.9887 8.20252 9.9974 8.20252Z" fill="white"/>
</svg>
