<svg width="21" height="20" viewBox="0 0 21 20" fill="none" xmlns="http://www.w3.org/2000/svg">
<path fill-rule="evenodd" clip-rule="evenodd" d="M9.91042 14.4107C9.58498 14.7362 9.58498 15.2638 9.91042 15.5893C10.2359 15.9147 10.7635 15.9147 11.0889 15.5893L16.0434 10.6348C16.2207 10.482 16.333 10.2557 16.333 10.0033L16.333 10.0016C16.3334 9.78782 16.2521 9.57388 16.0889 9.41075L11.0889 4.41075C10.7635 4.08531 10.2359 4.08531 9.91042 4.41075C9.58498 4.73618 9.58498 5.26382 9.91042 5.58926L13.4911 9.16992L5.49968 9.16992C5.03944 9.16992 4.66634 9.54302 4.66634 10.0033C4.66634 10.4635 5.03944 10.8366 5.49968 10.8366L13.4846 10.8366L9.91042 14.4107Z" fill="#222222"/>
</svg>
