<svg width="20" height="20" viewBox="0 0 20 20" fill="none" xmlns="http://www.w3.org/2000/svg">
<path fill-rule="evenodd" clip-rule="evenodd" d="M9.41042 14.4104C9.08498 14.7359 9.08498 15.2635 9.41042 15.5889C9.73586 15.9144 10.2635 15.9144 10.5889 15.5889L15.5434 10.6345C15.7207 10.4816 15.833 10.2554 15.833 10.0029L15.833 10.0013C15.8334 9.78749 15.7521 9.57355 15.5889 9.41042L10.5889 4.41042C10.2635 4.08498 9.73586 4.08498 9.41042 4.41042C9.08498 4.73586 9.08498 5.26349 9.41042 5.58893L12.9911 9.1696L4.99968 9.1696C4.53944 9.1696 4.16634 9.54269 4.16634 10.0029C4.16634 10.4632 4.53944 10.8363 4.99968 10.8363L12.9846 10.8363L9.41042 14.4104Z" fill="#4B72FE"/>
</svg>
