<svg width="20" height="21" viewBox="0 0 20 21" fill="none" xmlns="http://www.w3.org/2000/svg">
<path fill-rule="evenodd" clip-rule="evenodd" d="M9.40944 14.4729C9.08401 14.7984 9.08401 15.326 9.40944 15.6514C9.73488 15.9769 10.2625 15.9769 10.588 15.6514L15.5424 10.697C15.7198 10.5441 15.832 10.3179 15.832 10.0654L15.832 10.0638C15.8324 9.84999 15.7511 9.63605 15.588 9.47292L10.588 4.47292C10.2625 4.14748 9.73488 4.14748 9.40944 4.47292C9.08401 4.79836 9.08401 5.32599 9.40944 5.65143L12.9901 9.2321L4.9987 9.2321C4.53846 9.2321 4.16537 9.60519 4.16537 10.0654C4.16537 10.5257 4.53846 10.8988 4.9987 10.8988L12.9836 10.8988L9.40944 14.4729Z" fill="#A9AEBF"/>
</svg>
