<svg width="16" height="17" viewBox="0 0 16 17" fill="none" xmlns="http://www.w3.org/2000/svg">
<path d="M5.9987 9.39583L7.33203 10.7292L9.9987 8.0625M11.9987 14.0625H3.9987C3.82189 14.0625 3.65232 13.9923 3.52729 13.8672C3.40227 13.7422 3.33203 13.5726 3.33203 13.3958V2.72917C3.33203 2.55236 3.40227 2.38279 3.52729 2.25776C3.65232 2.13274 3.82189 2.0625 3.9987 2.0625H11.9987C12.1755 2.0625 12.3451 2.13274 12.4701 2.25776C12.5951 2.38279 12.6654 2.55236 12.6654 2.72917V13.3958C12.6654 13.5726 12.5951 13.7422 12.4701 13.8672C12.3451 13.9923 12.1755 14.0625 11.9987 14.0625ZM5.9987 4.0625C5.9987 4.23931 6.06894 4.40888 6.19396 4.5339C6.31898 4.65893 6.48855 4.72917 6.66536 4.72917H9.33203C9.50884 4.72917 9.67841 4.65893 9.80344 4.5339C9.92846 4.40888 9.9987 4.23931 9.9987 4.0625V2.0625H5.9987V4.0625Z" stroke="#4B72FE" stroke-width="1.3" stroke-linecap="round" stroke-linejoin="round"/>
</svg>
