<svg width="17" height="17" viewBox="0 0 17 17" fill="none" xmlns="http://www.w3.org/2000/svg">
<path d="M6.4987 10.2708L7.83203 11.6042L10.4987 8.9375M12.4987 14.9375H4.4987C4.32189 14.9375 4.15232 14.8673 4.02729 14.7422C3.90227 14.6172 3.83203 14.4476 3.83203 14.2708V3.60417C3.83203 3.42736 3.90227 3.25779 4.02729 3.13276C4.15232 3.00774 4.32189 2.9375 4.4987 2.9375H12.4987C12.6755 2.9375 12.8451 3.00774 12.9701 3.13276C13.0951 3.25779 13.1654 3.42736 13.1654 3.60417V14.2708C13.1654 14.4476 13.0951 14.6172 12.9701 14.7422C12.8451 14.8673 12.6755 14.9375 12.4987 14.9375ZM6.4987 4.9375C6.4987 5.11431 6.56894 5.28388 6.69396 5.4089C6.81898 5.53393 6.98855 5.60417 7.16536 5.60417H9.83203C10.0088 5.60417 10.1784 5.53393 10.3034 5.4089C10.4285 5.28388 10.4987 5.11431 10.4987 4.9375V2.9375H6.4987V4.9375Z" stroke="white" stroke-linecap="square" stroke-linejoin="round"/>
</svg>
