<svg width="15" height="15" viewBox="0 0 15 15" fill="none" xmlns="http://www.w3.org/2000/svg">
<path d="M5.62476 8.75L6.87476 10L9.37476 7.5M11.2498 13.125H3.74976C3.584 13.125 3.42502 13.0592 3.30781 12.9419C3.1906 12.8247 3.12476 12.6658 3.12476 12.5V2.5C3.12476 2.33424 3.1906 2.17527 3.30781 2.05806C3.42502 1.94085 3.584 1.875 3.74976 1.875H11.2498C11.4155 1.875 11.5745 1.94085 11.6917 2.05806C11.8089 2.17527 11.8748 2.33424 11.8748 2.5V12.5C11.8748 12.6658 11.8089 12.8247 11.6917 12.9419C11.5745 13.0592 11.4155 13.125 11.2498 13.125ZM5.62476 3.75C5.62476 3.91576 5.6906 4.07473 5.80781 4.19194C5.92502 4.30915 6.084 4.375 6.24976 4.375H8.74976C8.91552 4.375 9.07449 4.30915 9.1917 4.19194C9.30891 4.07473 9.37476 3.91576 9.37476 3.75V1.875H5.62476V3.75Z" stroke="#66697E" stroke-width="1.2" stroke-linecap="square" stroke-linejoin="round"/>
</svg>
