<svg width="25" height="24" viewBox="0 0 25 24" fill="none" xmlns="http://www.w3.org/2000/svg">
<path d="M18.6251 13.9297H6.65836C5.33039 13.9297 4.25 15.0022 4.25 16.3372V20.0497C4.25 21.3772 5.33039 22.4572 6.65836 22.4572H18.6251C19.9531 22.4572 21.0335 21.3772 21.0335 20.0497V16.3372C21.026 15.0022 19.9531 13.9297 18.6251 13.9297Z" fill="#9B9B9B"/>
<path d="M18.6125 6.84961H6.6575C5.33 6.84961 4.25 7.92961 4.25 9.25711V17.0046C4.25 18.3321 5.33 19.4121 6.6575 19.4121H9.17C9.3575 19.4121 9.5375 19.5021 9.6425 19.6521C10.3025 20.5971 11.3975 21.2196 12.6425 21.2196C13.8875 21.2196 14.9825 20.5971 15.6425 19.6521C15.7475 19.5021 15.9275 19.4121 16.115 19.4121H18.6275C19.955 19.4121 21.035 18.3321 21.035 17.0046V9.25711C21.02 7.92961 19.9475 6.84961 18.6125 6.84961Z" fill="#E6E6E6"/>
<path d="M17.2383 8.76172H8.02828C7.00828 8.76172 6.17578 9.59422 6.17578 10.6142V15.7217C6.17578 16.7417 7.00828 17.5742 8.02828 17.5742H10.3383C10.6083 17.5742 10.8333 17.7617 10.9008 18.0242C11.1033 18.7967 11.8008 19.3667 12.6333 19.3667C13.4658 19.3667 14.1708 18.7967 14.3658 18.0242C14.4333 17.7617 14.6583 17.5742 14.9283 17.5742H17.2383C18.2583 17.5742 19.0908 16.7417 19.0908 15.7217V10.6142C19.0908 9.59422 18.2658 8.76172 17.2383 8.76172Z" fill="#00A6ED"/>
<path d="M14.7059 2.60266V7.92766C14.7059 8.04766 14.8034 8.13766 14.9159 8.13766H15.6509C16.1159 8.13766 16.3634 8.69266 16.0484 9.03766L13.0409 12.3452C12.8309 12.5777 12.4634 12.5777 12.2459 12.3452L9.2309 9.03766C8.9159 8.69266 9.1634 8.13766 9.6284 8.13766H10.3634C10.4834 8.13766 10.5734 8.04016 10.5734 7.92766V2.60266C10.5734 2.40766 10.7309 2.25016 10.9259 2.25016H14.3609C14.5484 2.25016 14.7059 2.40766 14.7059 2.60266Z" fill="#F92F60"/>
</svg>
