<svg width="50" height="50" viewBox="0 0 50 50" fill="none" xmlns="http://www.w3.org/2000/svg">
<g clip-path="url(#clip0_849_10928)">
<path d="M24.9983 46.8715C39.5833 46.8715 46.8715 37.0785 46.8715 24.9983C46.8715 12.918 39.5833 3.125 24.9983 3.125C10.4132 3.125 3.125 12.918 3.125 24.9983C3.125 37.0785 10.4132 46.8715 24.9983 46.8715Z" fill="url(#paint0_radial_849_10928)"/>
<path d="M24.9983 46.8715C39.5833 46.8715 46.8715 37.0785 46.8715 24.9983C46.8715 12.918 39.5833 3.125 24.9983 3.125C10.4132 3.125 3.125 12.918 3.125 24.9983C3.125 37.0785 10.4132 46.8715 24.9983 46.8715Z" fill="url(#paint1_radial_849_10928)"/>
<path d="M24.9983 46.8715C39.5833 46.8715 46.8715 37.0785 46.8715 24.9983C46.8715 12.918 39.5833 3.125 24.9983 3.125C10.4132 3.125 3.125 12.918 3.125 24.9983C3.125 37.0785 10.4132 46.8715 24.9983 46.8715Z" fill="url(#paint2_radial_849_10928)"/>
<path d="M24.9983 46.8715C39.5833 46.8715 46.8715 37.0785 46.8715 24.9983C46.8715 12.918 39.5833 3.125 24.9983 3.125C10.4132 3.125 3.125 12.918 3.125 24.9983C3.125 37.0785 10.4132 46.8715 24.9983 46.8715Z" fill="url(#paint3_radial_849_10928)" fill-opacity="0.6"/>
<path d="M24.9983 46.8715C39.5833 46.8715 46.8715 37.0785 46.8715 24.9983C46.8715 12.918 39.5833 3.125 24.9983 3.125C10.4132 3.125 3.125 12.918 3.125 24.9983C3.125 37.0785 10.4132 46.8715 24.9983 46.8715Z" fill="url(#paint4_radial_849_10928)"/>
<path d="M24.9983 46.8715C39.5833 46.8715 46.8715 37.0785 46.8715 24.9983C46.8715 12.918 39.5833 3.125 24.9983 3.125C10.4132 3.125 3.125 12.918 3.125 24.9983C3.125 37.0785 10.4132 46.8715 24.9983 46.8715Z" fill="url(#paint5_radial_849_10928)"/>
<path d="M24.9983 46.8715C39.5833 46.8715 46.8715 37.0785 46.8715 24.9983C46.8715 12.918 39.5833 3.125 24.9983 3.125C10.4132 3.125 3.125 12.918 3.125 24.9983C3.125 37.0785 10.4132 46.8715 24.9983 46.8715Z" fill="url(#paint6_radial_849_10928)"/>
<path d="M24.9983 46.8715C39.5833 46.8715 46.8715 37.0785 46.8715 24.9983C46.8715 12.918 39.5833 3.125 24.9983 3.125C10.4132 3.125 3.125 12.918 3.125 24.9983C3.125 37.0785 10.4132 46.8715 24.9983 46.8715Z" fill="url(#paint7_radial_849_10928)"/>
<circle cx="14.0891" cy="25.6575" r="7.30202" fill="url(#paint8_radial_849_10928)"/>
<ellipse cx="30.0692" cy="26.4735" rx="6.63173" ry="6.63173" fill="url(#paint9_radial_849_10928)"/>
<path d="M16.2808 30.0382C19.9103 30.0382 22.8526 27.0959 22.8526 23.4664C22.8526 19.8368 19.9103 16.8945 16.2808 16.8945C12.6513 16.8945 9.70898 19.8368 9.70898 23.4664C9.70898 27.0959 12.6513 30.0382 16.2808 30.0382Z" fill="white"/>
<path d="M33.7014 30.158C37.364 30.158 40.3331 27.1889 40.3331 23.5263C40.3331 19.8637 37.364 16.8945 33.7014 16.8945C30.0388 16.8945 27.0697 19.8637 27.0697 23.5263C27.0697 27.1889 30.0388 30.158 33.7014 30.158Z" fill="white"/>
<path d="M17.1875 28.125C19.7763 28.125 21.875 26.0263 21.875 23.4375C21.875 20.8487 19.7763 18.75 17.1875 18.75C14.5987 18.75 12.5 20.8487 12.5 23.4375C12.5 26.0263 14.5987 28.125 17.1875 28.125Z" fill="url(#paint10_linear_849_10928)"/>
<path d="M32.8125 28.125C35.4013 28.125 37.5 26.0263 37.5 23.4375C37.5 20.8487 35.4013 18.75 32.8125 18.75C30.2237 18.75 28.125 20.8487 28.125 23.4375C28.125 26.0263 30.2237 28.125 32.8125 28.125Z" fill="url(#paint11_linear_849_10928)"/>
<path d="M16.4062 10.1562C16.4062 10.1562 15.625 14.8438 10.1562 14.8438" stroke="url(#paint12_linear_849_10928)" stroke-width="1.25" stroke-linecap="round" stroke-linejoin="round"/>
<path d="M16.4062 10.1562C16.4062 10.1562 15.625 14.8438 10.1562 14.8438" stroke="url(#paint13_radial_849_10928)" stroke-width="1.25" stroke-linecap="round" stroke-linejoin="round"/>
<path d="M33.5938 10.1562C33.5938 10.1562 34.375 14.8438 39.8438 14.8438" stroke="url(#paint14_radial_849_10928)" stroke-width="1.25" stroke-linecap="round" stroke-linejoin="round"/>
<path d="M20.3125 35.9375C20.3125 35.9375 21.875 34.375 25 34.375C28.125 34.375 29.6875 35.9375 29.6875 35.9375" stroke="url(#paint15_linear_849_10928)" stroke-width="2" stroke-linecap="round"/>
<rect x="1.5625" y="26.5625" width="7.8125" height="14.0625" rx="3.90625" fill="url(#paint16_radial_849_10928)"/>
</g>
<defs>
<radialGradient id="paint0_radial_849_10928" cx="0" cy="0" r="1" gradientUnits="userSpaceOnUse" gradientTransform="translate(39.8437 14.0625) rotate(132.839) scale(58.5989)">
<stop stop-color="#FFF478"/>
<stop offset="0.474827" stop-color="#FFB02E"/>
<stop offset="1" stop-color="#F70A8D"/>
</radialGradient>
<radialGradient id="paint1_radial_849_10928" cx="0" cy="0" r="1" gradientUnits="userSpaceOnUse" gradientTransform="translate(39.8438 14.0625) rotate(131.878) scale(60.8573)">
<stop stop-color="#FFF478"/>
<stop offset="0.474827" stop-color="#FFB02E"/>
<stop offset="1" stop-color="#F70A8D"/>
</radialGradient>
<radialGradient id="paint2_radial_849_10928" cx="0" cy="0" r="1" gradientUnits="userSpaceOnUse" gradientTransform="translate(25 19.5313) rotate(101.31) scale(27.8853 35.7157)">
<stop offset="0.787821" stop-color="#F59639" stop-opacity="0"/>
<stop offset="0.972509" stop-color="#FF7DCE"/>
</radialGradient>
<radialGradient id="paint3_radial_849_10928" cx="0" cy="0" r="1" gradientUnits="userSpaceOnUse" gradientTransform="translate(28.125 21.875) rotate(135) scale(64.0816)">
<stop offset="0.314853" stop-opacity="0"/>
<stop offset="1"/>
</radialGradient>
<radialGradient id="paint4_radial_849_10928" cx="0" cy="0" r="1" gradientUnits="userSpaceOnUse" gradientTransform="translate(25 26.5625) rotate(77.692) scale(43.9796)">
<stop offset="0.507903" stop-color="#7D6133" stop-opacity="0"/>
<stop offset="1" stop-color="#715B32"/>
</radialGradient>
<radialGradient id="paint5_radial_849_10928" cx="0" cy="0" r="1" gradientUnits="userSpaceOnUse" gradientTransform="translate(25.7812 25.7813) rotate(55.7131) scale(20.8024 15.0786)">
<stop stop-color="#FFB849"/>
<stop offset="1" stop-color="#FFB847" stop-opacity="0"/>
</radialGradient>
<radialGradient id="paint6_radial_849_10928" cx="0" cy="0" r="1" gradientUnits="userSpaceOnUse" gradientTransform="translate(32.0313 28.125) rotate(9.86581) scale(18.2385)">
<stop stop-color="#FFA64B"/>
<stop offset="0.900412" stop-color="#FFAE46" stop-opacity="0"/>
</radialGradient>
<radialGradient id="paint7_radial_849_10928" cx="0" cy="0" r="1" gradientUnits="userSpaceOnUse" gradientTransform="translate(27.3437 23.4375) rotate(43.9708) scale(92.2702)">
<stop offset="0.185425" stop-opacity="0"/>
<stop offset="1" stop-opacity="0.4"/>
</radialGradient>
<radialGradient id="paint8_radial_849_10928" cx="0" cy="0" r="1" gradientUnits="userSpaceOnUse" gradientTransform="translate(19.7685 19.9781) rotate(135) scale(14.2278 7.36383)">
<stop stop-color="#392108"/>
<stop offset="1" stop-color="#C87928" stop-opacity="0"/>
</radialGradient>
<radialGradient id="paint9_radial_849_10928" cx="0" cy="0" r="1" gradientUnits="userSpaceOnUse" gradientTransform="translate(35.2272 21.3155) rotate(135) scale(11.9839 6.76509)">
<stop stop-color="#392108"/>
<stop offset="1" stop-color="#C87928" stop-opacity="0"/>
</radialGradient>
<linearGradient id="paint10_linear_849_10928" x1="25.7813" y1="17.1875" x2="24.2188" y2="28.125" gradientUnits="userSpaceOnUse">
<stop stop-color="#553B3E"/>
<stop offset="1" stop-color="#3D2432"/>
</linearGradient>
<linearGradient id="paint11_linear_849_10928" x1="25.7813" y1="17.1875" x2="24.2188" y2="28.125" gradientUnits="userSpaceOnUse">
<stop stop-color="#553B3E"/>
<stop offset="1" stop-color="#3D2432"/>
</linearGradient>
<linearGradient id="paint12_linear_849_10928" x1="14.8438" y1="9.375" x2="14.8438" y2="11.7188" gradientUnits="userSpaceOnUse">
<stop offset="0.0299084" stop-color="#524049"/>
<stop offset="1" stop-color="#4A2C42"/>
</linearGradient>
<radialGradient id="paint13_radial_849_10928" cx="0" cy="0" r="1" gradientUnits="userSpaceOnUse" gradientTransform="translate(10.9375 9.375) rotate(54.4623) scale(6.72057)">
<stop offset="0.541667" stop-color="#493032"/>
<stop offset="0.806723" stop-color="#5E445A"/>
<stop offset="0.955326" stop-color="#4A2C42"/>
</radialGradient>
<radialGradient id="paint14_radial_849_10928" cx="0" cy="0" r="1" gradientUnits="userSpaceOnUse" gradientTransform="translate(39.0625 9.375) rotate(125.538) scale(6.72057)">
<stop stop-color="#C2B4B5"/>
<stop offset="0.887405" stop-color="#462B45"/>
<stop offset="1" stop-color="#4A2C42"/>
</radialGradient>
<linearGradient id="paint15_linear_849_10928" x1="25" y1="31.25" x2="25" y2="34.375" gradientUnits="userSpaceOnUse">
<stop stop-color="#4F3C43"/>
<stop offset="1" stop-color="#512756"/>
</linearGradient>
<radialGradient id="paint16_radial_849_10928" cx="0" cy="0" r="1" gradientUnits="userSpaceOnUse" gradientTransform="translate(8.07292 27.2017) rotate(104.88) scale(15.2118 5.7764)">
<stop stop-color="#5C98FF"/>
<stop offset="0.805982" stop-color="#3D5BF1"/>
<stop offset="0.962238" stop-color="#6065CA"/>
</radialGradient>
<clipPath id="clip0_849_10928">
<rect width="50" height="50" fill="white"/>
</clipPath>
</defs>
</svg>
