<svg width="70" height="70" viewBox="0 0 70 70" fill="none" xmlns="http://www.w3.org/2000/svg">
<rect x="8" width="55" height="55" rx="27.5" fill="#F8FAFC"/>
<path d="M48.6667 38.6667L42 32L48.6667 38.6667Z" fill="#F8FAFC"/>
<path d="M48.6667 38.6667L42 32" stroke="#BEC3C8" stroke-width="3" stroke-linecap="square" stroke-linejoin="round"/>
<path d="M42 38.6667L48.6667 32L42 38.6667Z" fill="#F8FAFC"/>
<path d="M42 38.6667L48.6667 32" stroke="#BEC3C8" stroke-width="3" stroke-linecap="square" stroke-linejoin="round"/>
<path fill-rule="evenodd" clip-rule="evenodd" d="M33 27.1875C33 26.6697 33.4197 26.25 33.9375 26.25H48.9375C49.4553 26.25 49.875 26.6697 49.875 27.1875C49.875 27.7053 49.4553 28.125 48.9375 28.125H33.9375C33.4197 28.125 33 27.7053 33 27.1875Z" fill="#BEC3C8"/>
<path fill-rule="evenodd" clip-rule="evenodd" d="M33 35.9375C33 35.4197 33.4197 35 33.9375 35H38C38.5178 35 38.9375 35.4197 38.9375 35.9375C38.9375 36.4553 38.5178 36.875 38 36.875H33.9375C33.4197 36.875 33 36.4553 33 35.9375Z" fill="#BEC3C8"/>
<path fill-rule="evenodd" clip-rule="evenodd" d="M33 18.4375C33 17.9197 33.4197 17.5 33.9375 17.5H48.9375C49.4553 17.5 49.875 17.9197 49.875 18.4375C49.875 18.9553 49.4553 19.375 48.9375 19.375H33.9375C33.4197 19.375 33 18.9553 33 18.4375Z" fill="#BEC3C8"/>
<path fill-rule="evenodd" clip-rule="evenodd" d="M23 33.4375C23 32.9197 23.4197 32.5 23.9375 32.5H28.9375C29.4553 32.5 29.875 32.9197 29.875 33.4375V38.4375C29.875 38.9553 29.4553 39.375 28.9375 39.375H23.9375C23.4197 39.375 23 38.9553 23 38.4375V33.4375ZM24.875 34.375V37.5H28V34.375H24.875Z" fill="#BEC3C8"/>
<path fill-rule="evenodd" clip-rule="evenodd" d="M23 24.6875C23 24.1697 23.4197 23.75 23.9375 23.75H28.9375C29.4553 23.75 29.875 24.1697 29.875 24.6875V29.6875C29.875 30.2053 29.4553 30.625 28.9375 30.625H23.9375C23.4197 30.625 23 30.2053 23 29.6875V24.6875ZM24.875 25.625V28.75H28V25.625H24.875Z" fill="#BEC3C8"/>
<path fill-rule="evenodd" clip-rule="evenodd" d="M23 15.9375C23 15.4197 23.4197 15 23.9375 15H28.9375C29.4553 15 29.875 15.4197 29.875 15.9375V20.9375C29.875 21.4553 29.4553 21.875 28.9375 21.875H23.9375C23.4197 21.875 23 21.4553 23 20.9375V15.9375ZM24.875 16.875V20H28V16.875H24.875Z" fill="#BEC3C8"/>
</svg>
