<svg width="70" height="70" viewBox="0 0 70 70" fill="none" xmlns="http://www.w3.org/2000/svg">
<rect x="8" width="55" height="55" rx="27.5" fill="#F2F4F7"/>
<rect width="32" height="32" transform="translate(19 11)" fill="#F2F4F7"/>
<path fill-rule="evenodd" clip-rule="evenodd" d="M23.334 15.0003C23.334 13.7117 24.3787 12.667 25.6673 12.667H39.0007C39.5529 12.667 40.0007 13.1147 40.0007 13.667V19.3337H45.6673C46.2196 19.3337 46.6673 19.7814 46.6673 20.3337V39.0003C46.6673 40.289 45.6227 41.3337 44.334 41.3337H25.6673C24.3787 41.3337 23.334 40.289 23.334 39.0003V15.0003ZM25.6673 14.667C25.4832 14.667 25.334 14.8162 25.334 15.0003V39.0003C25.334 39.1844 25.4832 39.3337 25.6673 39.3337H44.334C44.5181 39.3337 44.6673 39.1844 44.6673 39.0003V21.3337H39.0007C38.4484 21.3337 38.0007 20.8859 38.0007 20.3337V14.667H25.6673Z" fill="#BEC3C8"/>
<path fill-rule="evenodd" clip-rule="evenodd" d="M38.2935 12.9599C38.6841 12.5694 39.3172 12.5694 39.7078 12.9599L46.3744 19.6266C46.7649 20.0171 46.7649 20.6502 46.3744 21.0408C45.9839 21.4313 45.3507 21.4313 44.9602 21.0408L38.2935 14.3741C37.903 13.9836 37.903 13.3504 38.2935 12.9599Z" fill="#BEC3C8"/>
<path fill-rule="evenodd" clip-rule="evenodd" d="M31.0007 20.667C30.0802 20.667 29.334 21.4132 29.334 22.3337C29.334 23.2541 30.0802 24.0003 31.0007 24.0003C31.9211 24.0003 32.6673 23.2541 32.6673 22.3337C32.6673 21.4132 31.9211 20.667 31.0007 20.667ZM27.334 22.3337C27.334 20.3086 28.9756 18.667 31.0007 18.667C33.0257 18.667 34.6673 20.3086 34.6673 22.3337C34.6673 24.3587 33.0257 26.0003 31.0007 26.0003C28.9756 26.0003 27.334 24.3587 27.334 22.3337Z" fill="#BEC3C8"/>
<path fill-rule="evenodd" clip-rule="evenodd" d="M41.3604 24.0673C41.7462 24.2161 42.0007 24.5869 42.0007 25.0004V35.667C42.0007 36.2193 41.5529 36.667 41.0007 36.667H29.0007C28.4484 36.667 28.0007 36.2193 28.0007 35.667V29.667C28.0007 29.3333 28.1671 29.0216 28.4444 28.836C28.7217 28.6504 29.0733 28.6153 29.3818 28.7425L34.3912 30.8078L40.2595 24.329C40.5371 24.0226 40.9746 23.9186 41.3604 24.0673ZM40.0007 27.594L35.4014 32.6717C35.1182 32.9844 34.6692 33.0857 34.2791 32.9249L30.0007 31.161V34.667H40.0007V27.594Z" fill="#BEC3C8"/>
<rect x="35" y="26" width="18.9093" height="18.9093" rx="9.45465" fill="#F2F4F7"/>
<path fill-rule="evenodd" clip-rule="evenodd" d="M44.4547 33.3333L41.1213 30L39 32.1213L42.3333 35.4547L39 38.788L41.1213 40.9093L44.4547 37.576L47.788 40.9093L49.9093 38.788L46.576 35.4547L49.9093 32.1213L47.788 30L44.4547 33.3333Z" fill="#BEC3C8"/>
</svg>
