<svg width="50" height="50" viewBox="0 0 50 50" fill="none" xmlns="http://www.w3.org/2000/svg">
<g filter="url(#filter0_i_849_10943)">
<path d="M19.1677 8.06023C19.1677 5.2224 21.4682 2.92188 24.306 2.92188C27.1438 2.92188 29.4444 5.2224 29.4444 8.06023V13.9734C29.4444 14.4777 29.4094 14.9805 29.3315 15.4832C29.3031 15.6667 29.2746 15.8501 29.2569 16.0332C29.2008 16.612 29.2693 17.3681 29.6628 17.8758L28.7231 18.7822C33.4344 21.1891 36.6627 26.1112 36.6627 31.7921C36.6627 33.3311 36.4257 34.8145 35.9865 36.2073L34.4296 46.3736H21.7709V46.3693C13.9535 46.201 7.68164 41.1032 7.68164 31.7921C7.68164 26.3186 10.3024 21.9124 14.2673 19.4278L14.2575 19.42C14.5276 19.2323 14.8461 19.0414 15.1876 18.8366L15.1901 18.8351C16.3146 18.161 17.6889 17.3372 18.414 15.9898C19.0427 14.8217 19.1647 12.9258 19.1647 12.0469L19.1677 12.0483V8.06023Z" fill="url(#paint0_linear_849_10943)"/>
</g>
<path d="M19.1677 8.06023C19.1677 5.2224 21.4682 2.92188 24.306 2.92188C27.1438 2.92188 29.4444 5.2224 29.4444 8.06023V13.9734C29.4444 14.4777 29.4094 14.9805 29.3315 15.4832C29.3031 15.6667 29.2746 15.8501 29.2569 16.0332C29.2008 16.612 29.2693 17.3681 29.6628 17.8758L28.7231 18.7822C33.4344 21.1891 36.6627 26.1112 36.6627 31.7921C36.6627 33.3311 36.4257 34.8145 35.9865 36.2073L34.4296 46.3736H21.7709V46.3693C13.9535 46.201 7.68164 41.1032 7.68164 31.7921C7.68164 26.3186 10.3024 21.9124 14.2673 19.4278L14.2575 19.42C14.5276 19.2323 14.8461 19.0414 15.1876 18.8366L15.1901 18.8351C16.3146 18.161 17.6889 17.3372 18.414 15.9898C19.0427 14.8217 19.1647 12.9258 19.1647 12.0469L19.1677 12.0483V8.06023Z" fill="url(#paint1_radial_849_10943)"/>
<path d="M19.1677 8.06023C19.1677 5.2224 21.4682 2.92188 24.306 2.92188C27.1438 2.92188 29.4444 5.2224 29.4444 8.06023V13.9734C29.4444 14.4777 29.4094 14.9805 29.3315 15.4832C29.3031 15.6667 29.2746 15.8501 29.2569 16.0332C29.2008 16.612 29.2693 17.3681 29.6628 17.8758L28.7231 18.7822C33.4344 21.1891 36.6627 26.1112 36.6627 31.7921C36.6627 33.3311 36.4257 34.8145 35.9865 36.2073L34.4296 46.3736H21.7709V46.3693C13.9535 46.201 7.68164 41.1032 7.68164 31.7921C7.68164 26.3186 10.3024 21.9124 14.2673 19.4278L14.2575 19.42C14.5276 19.2323 14.8461 19.0414 15.1876 18.8366L15.1901 18.8351C16.3146 18.161 17.6889 17.3372 18.414 15.9898C19.0427 14.8217 19.1647 12.9258 19.1647 12.0469L19.1677 12.0483V8.06023Z" fill="url(#paint2_radial_849_10943)"/>
<path d="M19.1677 8.06023C19.1677 5.2224 21.4682 2.92188 24.306 2.92188C27.1438 2.92188 29.4444 5.2224 29.4444 8.06023V13.9734C29.4444 14.4777 29.4094 14.9805 29.3315 15.4832C29.3031 15.6667 29.2746 15.8501 29.2569 16.0332C29.2008 16.612 29.2693 17.3681 29.6628 17.8758L28.7231 18.7822C33.4344 21.1891 36.6627 26.1112 36.6627 31.7921C36.6627 33.3311 36.4257 34.8145 35.9865 36.2073L34.4296 46.3736H21.7709V46.3693C13.9535 46.201 7.68164 41.1032 7.68164 31.7921C7.68164 26.3186 10.3024 21.9124 14.2673 19.4278L14.2575 19.42C14.5276 19.2323 14.8461 19.0414 15.1876 18.8366L15.1901 18.8351C16.3146 18.161 17.6889 17.3372 18.414 15.9898C19.0427 14.8217 19.1647 12.9258 19.1647 12.0469L19.1677 12.0483V8.06023Z" fill="url(#paint3_radial_849_10943)"/>
<path d="M19.1677 8.06023C19.1677 5.2224 21.4682 2.92188 24.306 2.92188C27.1438 2.92188 29.4444 5.2224 29.4444 8.06023V13.9734C29.4444 14.4777 29.4094 14.9805 29.3315 15.4832C29.3031 15.6667 29.2746 15.8501 29.2569 16.0332C29.2008 16.612 29.2693 17.3681 29.6628 17.8758L28.7231 18.7822C33.4344 21.1891 36.6627 26.1112 36.6627 31.7921C36.6627 33.3311 36.4257 34.8145 35.9865 36.2073L34.4296 46.3736H21.7709V46.3693C13.9535 46.201 7.68164 41.1032 7.68164 31.7921C7.68164 26.3186 10.3024 21.9124 14.2673 19.4278L14.2575 19.42C14.5276 19.2323 14.8461 19.0414 15.1876 18.8366L15.1901 18.8351C16.3146 18.161 17.6889 17.3372 18.414 15.9898C19.0427 14.8217 19.1647 12.9258 19.1647 12.0469L19.1677 12.0483V8.06023Z" fill="url(#paint4_linear_849_10943)"/>
<g filter="url(#filter1_f_849_10943)">
<path d="M36.999 22.9823C36.999 20.7803 35.2138 18.9951 33.0118 18.9951H28.5954C26.3934 18.9951 24.6082 20.7803 24.6082 22.9823C24.6082 24.2103 25.1634 25.3086 26.0363 26.04C25.0712 26.7702 24.4473 27.9295 24.4473 29.2313C24.4473 30.4502 24.9943 31.5441 25.8561 32.2779C24.9943 33.0093 24.4473 34.1005 24.4473 35.3194V35.5161C24.4473 36.6086 24.8866 37.5984 25.5983 38.3186C24.8876 39.0219 24.4473 39.9979 24.4473 41.0767C24.4473 43.2195 26.1843 44.9567 28.3272 44.9567H32.7078C34.8506 44.9567 36.5877 43.2195 36.5877 41.0767C36.5877 40.3675 36.3974 39.7027 36.0651 39.1306C37.4246 38.4955 38.3668 37.1158 38.3668 35.5161V35.3194C38.3668 34.0856 37.8064 32.9827 36.9263 32.2514C37.7704 31.5178 38.3042 30.4356 38.3042 29.2313C38.3042 27.634 37.3649 26.2514 36.0086 25.6124C36.6252 24.9104 36.999 23.99 36.999 22.9823Z" fill="url(#paint5_linear_849_10943)"/>
</g>
<g filter="url(#filter2_i_849_10943)">
<rect x="40.5566" y="16.7666" width="9.09407" height="14.1305" rx="2.9101" transform="rotate(90 40.5566 16.7666)" fill="url(#paint6_linear_849_10943)"/>
<rect x="40.5566" y="16.7666" width="9.09407" height="14.1305" rx="2.9101" transform="rotate(90 40.5566 16.7666)" fill="url(#paint7_radial_849_10943)"/>
</g>
<g filter="url(#filter3_i_849_10943)">
<rect x="40.0879" y="37.5234" width="8.84938" height="13.8451" rx="2.9101" transform="rotate(90 40.0879 37.5234)" fill="url(#paint8_linear_849_10943)"/>
<rect x="40.0879" y="37.5234" width="8.84938" height="13.8451" rx="2.9101" transform="rotate(90 40.0879 37.5234)" fill="url(#paint9_radial_849_10943)"/>
<rect x="40.0879" y="37.5234" width="8.84938" height="13.8451" rx="2.9101" transform="rotate(90 40.0879 37.5234)" fill="url(#paint10_radial_849_10943)"/>
</g>
<rect x="40.0879" y="37.5234" width="8.84938" height="13.8451" rx="2.9101" transform="rotate(90 40.0879 37.5234)" fill="url(#paint11_linear_849_10943)"/>
<rect x="40.0879" y="37.5234" width="8.84938" height="13.8451" rx="2.9101" transform="rotate(90 40.0879 37.5234)" fill="url(#paint12_radial_849_10943)"/>
<g filter="url(#filter4_f_849_10943)">
<rect x="30.6582" y="40.1543" width="8.39101" height="2.30656" rx="1.15328" fill="url(#paint13_linear_849_10943)"/>
</g>
<rect x="42.1172" y="30.8359" width="9.31839" height="15.8739" rx="2.98188" transform="rotate(90 42.1172 30.8359)" fill="#C4C4C4" fill-opacity="0.66"/>
<g filter="url(#filter5_i_849_10943)">
<rect x="42.1172" y="30.8359" width="9.31839" height="15.8739" rx="2.9101" transform="rotate(90 42.1172 30.8359)" fill="url(#paint14_linear_849_10943)"/>
<rect x="42.1172" y="30.8359" width="9.31839" height="15.8739" rx="2.9101" transform="rotate(90 42.1172 30.8359)" fill="url(#paint15_radial_849_10943)"/>
<rect x="42.1172" y="30.8359" width="9.31839" height="15.8739" rx="2.9101" transform="rotate(90 42.1172 30.8359)" fill="url(#paint16_radial_849_10943)"/>
</g>
<g filter="url(#filter6_f_849_10943)">
<rect x="30.0508" y="34.1074" width="10.5076" height="2.30656" rx="1.15328" fill="url(#paint17_linear_849_10943)"/>
</g>
<g filter="url(#filter7_i_849_10943)">
<rect x="42.0469" y="23.8828" width="9.11446" height="15.8025" rx="2.9101" transform="rotate(90 42.0469 23.8828)" fill="url(#paint18_linear_849_10943)"/>
<rect x="42.0469" y="23.8828" width="9.11446" height="15.8025" rx="2.9101" transform="rotate(90 42.0469 23.8828)" fill="url(#paint19_radial_849_10943)"/>
</g>
<path d="M24.3063 2.92188C21.4685 2.92188 19.168 5.2224 19.168 8.06022V12.0483L19.165 12.0469C19.165 12.9258 19.043 14.8217 18.4143 15.9898C17.6891 17.3372 16.3149 18.161 15.1904 18.8351C14.8479 19.0404 14.5286 19.2319 14.2578 19.42C15.8122 20.6651 18.9954 23.1529 19.0735 23.0943C19.1516 23.0357 22.7356 21.133 24.5178 20.189L24.442 19.11C27.2171 19.0381 29.4447 16.7659 29.4447 13.9734V8.06022C29.4447 5.2224 27.1441 2.92188 24.3063 2.92188Z" fill="url(#paint20_radial_849_10943)"/>
<path d="M24.3063 2.92188C21.4685 2.92188 19.168 5.2224 19.168 8.06022V12.0483L19.165 12.0469C19.165 12.9258 19.043 14.8217 18.4143 15.9898C17.6891 17.3372 16.3149 18.161 15.1904 18.8351C14.8479 19.0404 14.5286 19.2319 14.2578 19.42C15.8122 20.6651 18.9954 23.1529 19.0735 23.0943C19.1516 23.0357 22.7356 21.133 24.5178 20.189L24.442 19.11C27.2171 19.0381 29.4447 16.7659 29.4447 13.9734V8.06022C29.4447 5.2224 27.1441 2.92188 24.3063 2.92188Z" fill="url(#paint21_radial_849_10943)"/>
<path d="M21.0555 4.08008C19.9033 5.02236 19.168 6.45511 19.168 8.05959V8.35979H21.4905C21.4986 8.05053 21.4831 7.25872 21.3562 6.56535L21.3299 6.42256C21.2013 5.72407 21.0538 4.92322 21.0555 4.08008Z" fill="#FFBF71"/>
<path d="M21.0555 4.08008C19.9033 5.02236 19.168 6.45511 19.168 8.05959V8.35979H21.4905C21.4986 8.05053 21.4831 7.25872 21.3562 6.56535L21.3299 6.42256C21.2013 5.72407 21.0538 4.92322 21.0555 4.08008Z" fill="url(#paint22_radial_849_10943)"/>
<g filter="url(#filter8_f_849_10943)">
<rect x="29.4629" y="18.0068" width="9.58701" height="3.93054" rx="1.96527" fill="url(#paint23_linear_849_10943)"/>
</g>
<g filter="url(#filter9_f_849_10943)">
<rect x="29.3516" y="25" width="11.2063" height="3.93054" rx="1.96527" fill="url(#paint24_linear_849_10943)"/>
</g>
<g filter="url(#filter10_f_849_10943)">
<rect x="23.6719" y="4.86328" width="4.47693" height="12.4959" rx="2.23847" fill="url(#paint25_linear_849_10943)"/>
</g>
<defs>
<filter id="filter0_i_849_10943" x="7.68164" y="2.92188" width="29.4805" height="43.4521" filterUnits="userSpaceOnUse" color-interpolation-filters="sRGB">
<feFlood flood-opacity="0" result="BackgroundImageFix"/>
<feBlend mode="normal" in="SourceGraphic" in2="BackgroundImageFix" result="shape"/>
<feColorMatrix in="SourceAlpha" type="matrix" values="0 0 0 0 0 0 0 0 0 0 0 0 0 0 0 0 0 0 127 0" result="hardAlpha"/>
<feOffset dx="0.5"/>
<feGaussianBlur stdDeviation="1"/>
<feComposite in2="hardAlpha" operator="arithmetic" k2="-1" k3="1"/>
<feColorMatrix type="matrix" values="0 0 0 0 0.847059 0 0 0 0 0.458824 0 0 0 0 0.360784 0 0 0 1 0"/>
<feBlend mode="normal" in2="shape" result="effect1_innerShadow_849_10943"/>
</filter>
<filter id="filter1_f_849_10943" x="22.4473" y="16.9951" width="17.9199" height="29.9619" filterUnits="userSpaceOnUse" color-interpolation-filters="sRGB">
<feFlood flood-opacity="0" result="BackgroundImageFix"/>
<feBlend mode="normal" in="SourceGraphic" in2="BackgroundImageFix" result="shape"/>
<feGaussianBlur stdDeviation="1" result="effect1_foregroundBlur_849_10943"/>
</filter>
<filter id="filter2_i_849_10943" x="26.4258" y="16.7666" width="14.6309" height="9.09375" filterUnits="userSpaceOnUse" color-interpolation-filters="sRGB">
<feFlood flood-opacity="0" result="BackgroundImageFix"/>
<feBlend mode="normal" in="SourceGraphic" in2="BackgroundImageFix" result="shape"/>
<feColorMatrix in="SourceAlpha" type="matrix" values="0 0 0 0 0 0 0 0 0 0 0 0 0 0 0 0 0 0 127 0" result="hardAlpha"/>
<feOffset dx="0.5"/>
<feGaussianBlur stdDeviation="0.75"/>
<feComposite in2="hardAlpha" operator="arithmetic" k2="-1" k3="1"/>
<feColorMatrix type="matrix" values="0 0 0 0 0.878431 0 0 0 0 0.541176 0 0 0 0 0.0627451 0 0 0 1 0"/>
<feBlend mode="normal" in2="shape" result="effect1_innerShadow_849_10943"/>
</filter>
<filter id="filter3_i_849_10943" x="26.2422" y="37.0234" width="14.3457" height="9.34961" filterUnits="userSpaceOnUse" color-interpolation-filters="sRGB">
<feFlood flood-opacity="0" result="BackgroundImageFix"/>
<feBlend mode="normal" in="SourceGraphic" in2="BackgroundImageFix" result="shape"/>
<feColorMatrix in="SourceAlpha" type="matrix" values="0 0 0 0 0 0 0 0 0 0 0 0 0 0 0 0 0 0 127 0" result="hardAlpha"/>
<feOffset dx="0.5" dy="-0.5"/>
<feGaussianBlur stdDeviation="0.75"/>
<feComposite in2="hardAlpha" operator="arithmetic" k2="-1" k3="1"/>
<feColorMatrix type="matrix" values="0 0 0 0 0.941176 0 0 0 0 0.643137 0 0 0 0 0.215686 0 0 0 1 0"/>
<feBlend mode="normal" in2="shape" result="effect1_innerShadow_849_10943"/>
</filter>
<filter id="filter4_f_849_10943" x="29.4082" y="38.9043" width="10.8906" height="4.80664" filterUnits="userSpaceOnUse" color-interpolation-filters="sRGB">
<feFlood flood-opacity="0" result="BackgroundImageFix"/>
<feBlend mode="normal" in="SourceGraphic" in2="BackgroundImageFix" result="shape"/>
<feGaussianBlur stdDeviation="0.625" result="effect1_foregroundBlur_849_10943"/>
</filter>
<filter id="filter5_i_849_10943" x="26.2441" y="30.3359" width="16.373" height="9.81836" filterUnits="userSpaceOnUse" color-interpolation-filters="sRGB">
<feFlood flood-opacity="0" result="BackgroundImageFix"/>
<feBlend mode="normal" in="SourceGraphic" in2="BackgroundImageFix" result="shape"/>
<feColorMatrix in="SourceAlpha" type="matrix" values="0 0 0 0 0 0 0 0 0 0 0 0 0 0 0 0 0 0 127 0" result="hardAlpha"/>
<feOffset dx="0.5" dy="-0.5"/>
<feGaussianBlur stdDeviation="0.75"/>
<feComposite in2="hardAlpha" operator="arithmetic" k2="-1" k3="1"/>
<feColorMatrix type="matrix" values="0 0 0 0 0.941176 0 0 0 0 0.643137 0 0 0 0 0.215686 0 0 0 1 0"/>
<feBlend mode="normal" in2="shape" result="effect1_innerShadow_849_10943"/>
</filter>
<filter id="filter6_f_849_10943" x="28.8008" y="32.8574" width="13.0078" height="4.80664" filterUnits="userSpaceOnUse" color-interpolation-filters="sRGB">
<feFlood flood-opacity="0" result="BackgroundImageFix"/>
<feBlend mode="normal" in="SourceGraphic" in2="BackgroundImageFix" result="shape"/>
<feGaussianBlur stdDeviation="0.625" result="effect1_foregroundBlur_849_10943"/>
</filter>
<filter id="filter7_i_849_10943" x="26.2441" y="23.3828" width="16.3027" height="9.61426" filterUnits="userSpaceOnUse" color-interpolation-filters="sRGB">
<feFlood flood-opacity="0" result="BackgroundImageFix"/>
<feBlend mode="normal" in="SourceGraphic" in2="BackgroundImageFix" result="shape"/>
<feColorMatrix in="SourceAlpha" type="matrix" values="0 0 0 0 0 0 0 0 0 0 0 0 0 0 0 0 0 0 127 0" result="hardAlpha"/>
<feOffset dx="0.5" dy="-0.5"/>
<feGaussianBlur stdDeviation="0.75"/>
<feComposite in2="hardAlpha" operator="arithmetic" k2="-1" k3="1"/>
<feColorMatrix type="matrix" values="0 0 0 0 0.941176 0 0 0 0 0.643137 0 0 0 0 0.215686 0 0 0 1 0"/>
<feBlend mode="normal" in2="shape" result="effect1_innerShadow_849_10943"/>
</filter>
<filter id="filter8_f_849_10943" x="28.2129" y="16.7568" width="12.0879" height="6.43066" filterUnits="userSpaceOnUse" color-interpolation-filters="sRGB">
<feFlood flood-opacity="0" result="BackgroundImageFix"/>
<feBlend mode="normal" in="SourceGraphic" in2="BackgroundImageFix" result="shape"/>
<feGaussianBlur stdDeviation="0.625" result="effect1_foregroundBlur_849_10943"/>
</filter>
<filter id="filter9_f_849_10943" x="28.1016" y="23.75" width="13.707" height="6.43066" filterUnits="userSpaceOnUse" color-interpolation-filters="sRGB">
<feFlood flood-opacity="0" result="BackgroundImageFix"/>
<feBlend mode="normal" in="SourceGraphic" in2="BackgroundImageFix" result="shape"/>
<feGaussianBlur stdDeviation="0.625" result="effect1_foregroundBlur_849_10943"/>
</filter>
<filter id="filter10_f_849_10943" x="22.4219" y="3.61328" width="6.97656" height="14.9961" filterUnits="userSpaceOnUse" color-interpolation-filters="sRGB">
<feFlood flood-opacity="0" result="BackgroundImageFix"/>
<feBlend mode="normal" in="SourceGraphic" in2="BackgroundImageFix" result="shape"/>
<feGaussianBlur stdDeviation="0.625" result="effect1_foregroundBlur_849_10943"/>
</filter>
<linearGradient id="paint0_linear_849_10943" x1="30.0839" y1="10.3746" x2="14.3613" y2="43.48" gradientUnits="userSpaceOnUse">
<stop stop-color="#FFCA44"/>
<stop offset="1" stop-color="#F8A528"/>
</linearGradient>
<radialGradient id="paint1_radial_849_10943" cx="0" cy="0" r="1" gradientUnits="userSpaceOnUse" gradientTransform="translate(31.937 7.56945) rotate(141.116) scale(7.83693 23.1303)">
<stop stop-color="#FFE34C"/>
<stop offset="1" stop-color="#FFE34C" stop-opacity="0"/>
</radialGradient>
<radialGradient id="paint2_radial_849_10943" cx="0" cy="0" r="1" gradientUnits="userSpaceOnUse" gradientTransform="translate(17.67 24.6477) rotate(125.191) scale(11.6097 8.41025)">
<stop stop-color="#FFCA2E"/>
<stop offset="1" stop-color="#FFCA2E" stop-opacity="0"/>
</radialGradient>
<radialGradient id="paint3_radial_849_10943" cx="0" cy="0" r="1" gradientUnits="userSpaceOnUse" gradientTransform="translate(30.2643 28.3304) rotate(146.743) scale(25.2979 44.2724)">
<stop offset="0.681103" stop-color="#E18E3F" stop-opacity="0"/>
<stop offset="1" stop-color="#E18E3F"/>
</radialGradient>
<linearGradient id="paint4_linear_849_10943" x1="22.1722" y1="39.9408" x2="22.1722" y2="47.9106" gradientUnits="userSpaceOnUse">
<stop stop-color="#D8796F" stop-opacity="0"/>
<stop offset="1" stop-color="#D8796F"/>
</linearGradient>
<linearGradient id="paint5_linear_849_10943" x1="31.407" y1="18.9951" x2="31.407" y2="39.7577" gradientUnits="userSpaceOnUse">
<stop stop-color="#D1730B"/>
<stop offset="1" stop-color="#E27D47"/>
</linearGradient>
<linearGradient id="paint6_linear_849_10943" x1="45.1037" y1="16.7666" x2="45.1037" y2="30.8971" gradientUnits="userSpaceOnUse">
<stop stop-color="#FFDB44"/>
<stop offset="1" stop-color="#F9A928"/>
</linearGradient>
<radialGradient id="paint7_radial_849_10943" cx="0" cy="0" r="1" gradientUnits="userSpaceOnUse" gradientTransform="translate(49.1344 28.5987) rotate(127.367) scale(3.62672 2.42762)">
<stop stop-color="#D98320"/>
<stop offset="1" stop-color="#D98320" stop-opacity="0"/>
</radialGradient>
<linearGradient id="paint8_linear_849_10943" x1="44.5126" y1="38.7363" x2="44.5126" y2="51.3685" gradientUnits="userSpaceOnUse">
<stop stop-color="#FFDB44"/>
<stop offset="1" stop-color="#F9A928"/>
</linearGradient>
<radialGradient id="paint9_radial_849_10943" cx="0" cy="0" r="1" gradientUnits="userSpaceOnUse" gradientTransform="translate(48.9373 48.5638) rotate(-90) scale(11.4273 4.34721)">
<stop stop-color="#F29545"/>
<stop offset="1" stop-color="#F29545" stop-opacity="0"/>
</radialGradient>
<radialGradient id="paint10_radial_849_10943" cx="0" cy="0" r="1" gradientUnits="userSpaceOnUse" gradientTransform="translate(41.6414 49.1123) rotate(-90) scale(11.5889 3.11088)">
<stop stop-color="#DA810B"/>
<stop offset="1" stop-color="#FFB610" stop-opacity="0"/>
</radialGradient>
<linearGradient id="paint11_linear_849_10943" x1="49.8495" y1="44.446" x2="46.9868" y2="44.446" gradientUnits="userSpaceOnUse">
<stop stop-color="#DC7C6A"/>
<stop offset="1" stop-color="#DC7C6A" stop-opacity="0"/>
</linearGradient>
<radialGradient id="paint12_radial_849_10943" cx="0" cy="0" r="1" gradientUnits="userSpaceOnUse" gradientTransform="translate(44.5126 53.201) rotate(-90) scale(8.75506 13.1605)">
<stop stop-color="#E38811"/>
<stop offset="1" stop-color="#E38811" stop-opacity="0"/>
</radialGradient>
<linearGradient id="paint13_linear_849_10943" x1="38.6133" y1="40.7867" x2="29.5685" y2="40.7867" gradientUnits="userSpaceOnUse">
<stop stop-color="#FFF166"/>
<stop offset="1" stop-color="#FFF166" stop-opacity="0"/>
</linearGradient>
<linearGradient id="paint14_linear_849_10943" x1="46.7764" y1="32.2266" x2="46.7764" y2="46.7099" gradientUnits="userSpaceOnUse">
<stop stop-color="#FFDB44"/>
<stop offset="1" stop-color="#F9A928"/>
</linearGradient>
<radialGradient id="paint15_radial_849_10943" cx="0" cy="0" r="1" gradientUnits="userSpaceOnUse" gradientTransform="translate(51.4356 43.4942) rotate(-90) scale(13.1018 4.57761)">
<stop stop-color="#F29545"/>
<stop offset="1" stop-color="#F29545" stop-opacity="0"/>
</radialGradient>
<radialGradient id="paint16_radial_849_10943" cx="0" cy="0" r="1" gradientUnits="userSpaceOnUse" gradientTransform="translate(43.753 44.123) rotate(-90) scale(13.2871 3.27575)">
<stop stop-color="#DA810B"/>
<stop offset="1" stop-color="#FFB610" stop-opacity="0"/>
</radialGradient>
<linearGradient id="paint17_linear_849_10943" x1="40.0125" y1="34.7399" x2="28.6862" y2="34.7399" gradientUnits="userSpaceOnUse">
<stop stop-color="#FFF166"/>
<stop offset="1" stop-color="#FFF166" stop-opacity="0"/>
</linearGradient>
<linearGradient id="paint18_linear_849_10943" x1="46.6041" y1="23.8828" x2="46.6041" y2="39.6854" gradientUnits="userSpaceOnUse">
<stop stop-color="#FFDB44"/>
<stop offset="1" stop-color="#F9A928"/>
</linearGradient>
<radialGradient id="paint19_radial_849_10943" cx="0" cy="0" r="1" gradientUnits="userSpaceOnUse" gradientTransform="translate(50.0593 36.4173) rotate(-90) scale(8.5948 3.82574)">
<stop stop-color="#F29545"/>
<stop offset="1" stop-color="#F29545" stop-opacity="0"/>
</radialGradient>
<radialGradient id="paint20_radial_849_10943" cx="0" cy="0" r="1" gradientUnits="userSpaceOnUse" gradientTransform="translate(19.5889 7.56945) rotate(90) scale(9.93771 3.68974)">
<stop stop-color="#F3A52A"/>
<stop offset="1" stop-color="#F3A52A" stop-opacity="0"/>
</radialGradient>
<radialGradient id="paint21_radial_849_10943" cx="0" cy="0" r="1" gradientUnits="userSpaceOnUse" gradientTransform="translate(16.6863 14.1126) rotate(42.9975) scale(4.97761 7.53195)">
<stop stop-color="#CDA25E"/>
<stop offset="1" stop-color="#CDA25E" stop-opacity="0"/>
</radialGradient>
<radialGradient id="paint22_radial_849_10943" cx="0" cy="0" r="1" gradientUnits="userSpaceOnUse" gradientTransform="translate(21.8519 6.95387) rotate(-168.366) scale(2.56165 5.59139)">
<stop offset="0.549892" stop-color="#CCB28B" stop-opacity="0"/>
<stop offset="1" stop-color="#CCB28B"/>
</radialGradient>
<linearGradient id="paint23_linear_849_10943" x1="38.5519" y1="19.0846" x2="28.2178" y2="19.0846" gradientUnits="userSpaceOnUse">
<stop stop-color="#FFF166"/>
<stop offset="1" stop-color="#FFF166" stop-opacity="0"/>
</linearGradient>
<linearGradient id="paint24_linear_849_10943" x1="39.9758" y1="26.0777" x2="27.8962" y2="26.0777" gradientUnits="userSpaceOnUse">
<stop stop-color="#FFF166"/>
<stop offset="1" stop-color="#FFF166" stop-opacity="0"/>
</linearGradient>
<linearGradient id="paint25_linear_849_10943" x1="27.9162" y1="8.28955" x2="23.0905" y2="8.28955" gradientUnits="userSpaceOnUse">
<stop stop-color="#FFF166"/>
<stop offset="1" stop-color="#FFF166" stop-opacity="0"/>
</linearGradient>
</defs>
</svg>
