<?xml version="1.0" encoding="UTF-8"?>
<svg id="Layer_1" data-name="Layer 1" xmlns="http://www.w3.org/2000/svg" version="1.1" viewBox="0 0 40 40">
  <defs>
    <style>
      .cls-1 {
        fill: #9a9a9a;
        stroke-width: 0px;
      }
    </style>
  </defs>
  <path class="cls-1" d="M20.8,26.5c-.3.3-.8.3-1.1,0l-6.4-5.9c-.3-.3-.3-.8,0-1l6.4-5.9c.3-.3.8-.3,1.1,0,.3.3.3.8,0,1l-5.8,5.4,5.8,5.4c.3.3.3.8,0,1Z"/>
  <path class="cls-1" d="M26.8,26.5c-.3.3-.8.3-1.1,0l-6.4-5.9c-.3-.3-.3-.8,0-1l6.4-5.9c.3-.3.8-.3,1.1,0,.3.3.3.8,0,1l-5.8,5.4,5.8,5.4c.3.3.3.8,0,1Z"/>
</svg>