<svg width="40" height="40" viewBox="0 0 40 40" fill="none" xmlns="http://www.w3.org/2000/svg">
<path d="M19.2343 13.5509C19.5467 13.2617 20.0533 13.2617 20.3657 13.5509L26.7657 19.4769C27.0781 19.7661 27.0781 20.2352 26.7657 20.5244L20.3657 26.4504C20.0533 26.7396 19.5467 26.7396 19.2343 26.4504C18.9219 26.1611 18.9219 25.6921 19.2343 25.4028L25.0686 20.0007L19.2343 14.5985C18.9219 14.3092 18.9219 13.8402 19.2343 13.5509Z" fill="#9A9A9A"/>
<path d="M13.2343 13.5509C13.5467 13.2617 14.0533 13.2617 14.3657 13.5509L20.7657 19.4769C21.0781 19.7661 21.0781 20.2352 20.7657 20.5244L14.3657 26.4504C14.0533 26.7396 13.5467 26.7396 13.2343 26.4504C12.9219 26.1611 12.9219 25.6921 13.2343 25.4028L19.0686 20.0007L13.2343 14.5985C12.9219 14.3092 12.9219 13.8402 13.2343 13.5509Z" fill="#9A9A9A"/>
</svg>
